<svg width="25" height="25" viewBox="0 0 25 25" fill="none" xmlns="http://www.w3.org/2000/svg">
<g clip-path="url(#clip0_34_1800)">
<path d="M21.3379 16.1621C20.6706 15.4948 19.9341 14.9089 19.1284 14.4043C18.3228 13.8997 17.4723 13.4928 16.5771 13.1836C17.0654 12.8581 17.5049 12.4756 17.8955 12.0361C18.2861 11.5967 18.6198 11.1165 18.8965 10.5957C19.1732 10.0749 19.3807 9.52962 19.519 8.95996C19.6574 8.3903 19.7266 7.8125 19.7266 7.22656C19.7266 6.23372 19.5394 5.29785 19.165 4.41895C18.7744 3.54004 18.2536 2.77506 17.6025 2.12402C16.9515 1.47298 16.1865 0.952148 15.3076 0.561523C14.4287 0.187174 13.4928 0 12.5 0C11.5072 0 10.5713 0.187174 9.69238 0.561523C8.81348 0.952148 8.0485 1.47298 7.39746 2.12402C6.74642 2.77506 6.22559 3.54004 5.83496 4.41895C5.46061 5.29785 5.27344 6.23372 5.27344 7.22656C5.27344 7.8125 5.34261 8.3903 5.48096 8.95996C5.6193 9.52962 5.82682 10.0749 6.10352 10.5957C6.38021 11.1165 6.71387 11.5967 7.10449 12.0361C7.49512 12.4756 7.93457 12.8581 8.42285 13.1836C7.18587 13.6068 6.04655 14.209 5.00488 14.9902C3.96322 15.7715 3.06803 16.6911 2.31934 17.749C1.57064 18.807 0.996908 19.9544 0.598145 21.1914C0.199382 22.4284 0 23.6979 0 25H1.95312C1.95312 23.5514 2.22982 22.1842 2.7832 20.8984C3.33659 19.6126 4.08936 18.4937 5.0415 17.5415C5.99365 16.5894 7.11263 15.8366 8.39844 15.2832C9.68425 14.7298 11.0514 14.4531 12.5 14.4531C13.9486 14.4531 15.3158 14.7298 16.6016 15.2832C17.8874 15.8366 19.0063 16.5894 19.9585 17.5415C20.9106 18.4937 21.6634 19.6126 22.2168 20.8984C22.7702 22.1842 23.0469 23.5514 23.0469 25H25C25 24.1862 24.9227 23.3765 24.7681 22.5708C24.6134 21.7651 24.3734 20.9798 24.0479 20.2148C23.7386 19.4499 23.3561 18.7297 22.9004 18.0542C22.4447 17.3787 21.9238 16.748 21.3379 16.1621ZM7.22656 7.22656C7.22656 6.70573 7.30387 6.1971 7.4585 5.70068C7.61312 5.20426 7.82878 4.73633 8.10547 4.29688C8.39844 3.85742 8.74837 3.47494 9.15527 3.14941C9.56217 2.82389 10.0016 2.55534 10.4736 2.34375C10.9619 2.14844 11.4665 2.02637 11.9873 1.97754C12.5081 1.92871 13.0208 1.95312 13.5254 2.05078C14.0462 2.14844 14.5345 2.3234 14.9902 2.57568C15.446 2.82796 15.861 3.13314 16.2354 3.49121C16.5934 3.86556 16.8986 4.2806 17.1509 4.73633C17.4032 5.19206 17.5781 5.68034 17.6758 6.20117C17.7734 6.70573 17.7979 7.21842 17.749 7.73926C17.7002 8.26009 17.5781 8.76465 17.3828 9.25293C17.1712 9.72493 16.9027 10.1644 16.5771 10.5713C16.2516 10.9782 15.8691 11.3281 15.4297 11.6211C14.9902 11.8978 14.5223 12.1134 14.0259 12.2681C13.5295 12.4227 13.0208 12.5 12.5 12.5C11.8001 12.5 11.1287 12.3657 10.4858 12.0972C9.84294 11.8286 9.26921 11.4502 8.76465 10.9619C8.27637 10.4574 7.89795 9.88363 7.62939 9.24072C7.36084 8.59782 7.22656 7.92643 7.22656 7.22656Z" fill="#767676"/>
</g>
<defs>
<clipPath id="clip0_34_1800">
<rect width="25" height="25" fill="white" transform="matrix(1 0 0 -1 0 25)"/>
</clipPath>
</defs>
</svg>
